<svg width="100" height="100" viewBox="0 0 100 100" fill="none" xmlns="http://www.w3.org/2000/svg">
  <rect width="100" height="100" rx="15" fill="#334155"/>

  <rect x="20" y="20" width="60" height="60" rx="5" fill="#1e293b"/>

  <rect x="15" y="30" width="5" height="10" fill="#10b981"/>
  <rect x="15" y="45" width="5" height="10" fill="#10b981"/>
  <rect x="15" y="60" width="5" height="10" fill="#10b981"/>
  <rect x="80" y="30" width="5" height="10" fill="#10b981"/>
  <rect x="80" y="45" width="5" height="10" fill="#10b981"/>
  <rect x="80" y="60" width="5" height="10" fill="#10b981"/>
  <rect x="30" y="15" width="10" height="5" fill="#10b981"/>
  <rect x="45" y="15" width="10" height="5" fill="#10b981"/>
  <rect x="60" y="15" width="10" height="5" fill="#10b981"/>
  <rect x="30" y="80" width="10" height="5" fill="#10b981"/>
  <rect x="45" y="80" width="10" height="5" fill="#10b981"/>
  <rect x="60" y="80" width="10" height="5" fill="#10b981"/>

  <text x="50" y="59" font-family="monospace" font-size="28" font-weight="bold" fill="#3b82f6" text-anchor="middle">
    &lt;/&gt;
  </text>
</svg>